<?xml version="1.0" encoding="UTF-8"?>
<svg version="1.1" xmlns="http://www.w3.org/2000/svg" width="500" height="180">
<path d="M0 0 C6.77019561 5.95974883 14.26144993 12.75285292 15.78125 22.10546875 C15.89274942 24.9938346 15.80808162 27.28080147 14.30078125 29.79296875 C9.57129308 32.63066165 4.89566013 33.62702712 -0.57421875 32.91796875 C-2.86321234 30.76770204 -4.25974929 28.45803587 -5.83203125 25.7578125 C-9.46015363 19.81998379 -12.91959396 16.25805659 -19.57421875 13.91796875 C-26.69005101 12.27506375 -33.05875888 12.48124266 -39.57421875 15.91796875 C-45.80033534 19.81760049 -48.6302035 24.18551026 -50.98046875 31.07421875 C-52.58500017 38.75907975 -50.6185395 44.66619207 -48.07421875 51.85546875 C-47.44913656 53.6502168 -46.82483819 55.44523797 -46.20117188 57.24047852 C-45.89409302 58.12333023 -45.58701416 59.00618195 -45.27062988 59.91578674 C-45.04081421 60.57650681 -44.81099854 61.23722687 -44.57421875 61.91796875 C-33.17762346 58.25090874 -21.90073074 54.35829553 -10.71875 50.078125 C-9.62875702 49.66259369 -8.53876404 49.24706238 -7.41574097 48.81893921 C-2.92815026 47.10620032 1.55801522 45.39039409 6.03540039 43.65112305 C9.36178647 42.36169865 12.69560822 41.09337819 16.03125 39.828125 C17.02932175 39.43448257 18.02739349 39.04084015 19.05570984 38.63526917 C25.17176084 36.33786618 30.86631546 34.87841477 37.42578125 35.91796875 C42.66418997 39.02995386 44.69037618 42.76384628 46.61328125 48.35546875 C46.88736816 49.10465576 47.16145508 49.85384277 47.44384766 50.62573242 C48.07625227 52.35880681 48.70065017 54.09481498 49.31884766 55.83300781 C50.61032563 59.43228345 51.94430138 63.01511128 53.28125 66.59765625 C54.28918092 69.30806747 55.29522992 72.01917394 56.30078125 74.73046875 C56.67123062 75.72758377 56.67123062 75.72758377 57.04916382 76.74484253 C57.7595057 78.66175689 58.4644973 80.58055525 59.16796875 82.5 C59.57901855 83.61608643 59.99006836 84.73217285 60.41357422 85.88208008 C63.87978778 96.27821264 63.11674726 105.99992632 58.42578125 115.91796875 C48.93690081 131.27183559 26.24909001 135.87525223 10.37658691 141.55328369 C7.8452525 142.46107202 5.31692492 143.37706928 2.7886591 144.29336262 C-0.25692255 145.39670811 -3.30419912 146.4953368 -6.3515625 147.59375 C-8.03607765 148.20154045 -8.03607765 148.20154045 -9.75462341 148.8216095 C-22.06621279 153.22715211 -32.28124934 156.37617214 -44.99609375 151.25390625 C-54.39541547 146.38334863 -59.6365773 138.64891221 -63.140625 128.9609375 C-63.46079086 128.09914383 -63.78095673 127.23735016 -64.11082458 126.34944153 C-65.12829405 123.60462178 -66.13270559 120.8552354 -67.13671875 118.10546875 C-67.81488957 116.26856039 -68.4939177 114.4319683 -69.17382812 112.59570312 C-70.70842694 108.4470174 -72.23417366 104.29519072 -73.75294495 100.14068604 C-74.57258863 97.92238055 -75.41652259 95.71428747 -76.26171875 93.50561523 C-78.45542954 87.50922757 -78.60905242 82.392571 -76.13671875 76.48046875 C-73.52857843 73.87232843 -72.32108141 73.30966442 -68.9140625 72.2578125 C-68.10187256 72.00249756 -67.28968262 71.74718262 -66.45288086 71.48413086 C-65.83292236 71.29729736 -65.21296387 71.11046387 -64.57421875 70.91796875 C-64.98414063 69.69980469 -65.3940625 68.48164062 -65.81640625 67.2265625 C-66.36075828 65.6028918 -66.90502456 63.97919235 -67.44921875 62.35546875 C-67.85333984 61.15567383 -67.85333984 61.15567383 -68.265625 59.93164062 C-69.04687152 57.59742847 -69.81274644 55.25869623 -70.57421875 52.91796875 C-70.96222656 51.73976562 -71.35023437 50.5615625 -71.75 49.34765625 C-72.71062058 45.350382 -72.91864774 41.69978374 -72.88671875 37.60546875 C-72.87934692 36.48398438 -72.87934692 36.48398438 -72.87182617 35.33984375 C-72.60151918 22.54254054 -67.3944558 12.29378175 -58.7421875 2.9921875 C-43.10969677 -11.96430363 -17.06036829 -13.79844658 0 0 Z M-9.57421875 72.91796875 C-5.57421875 73.91796875 -5.57421875 73.91796875 -5.57421875 73.91796875 Z M-19.57421875 77.91796875 C-22.90006716 82.17663219 -22.97271258 86.09048001 -22.8671875 91.28125 C-22.86294266 92.07323288 -22.85869781 92.86521576 -22.85432434 93.68119812 C-22.83760038 96.19797502 -22.799961 98.71393599 -22.76171875 101.23046875 C-22.74666374 102.94204568 -22.73297676 104.65363524 -22.72070312 106.36523438 C-22.6877176 110.54979108 -22.63597973 114.73374182 -22.57421875 118.91796875 C-21.91421875 118.91796875 -21.25421875 118.91796875 -20.57421875 118.91796875 C-20.5491626 117.81807617 -20.52410645 116.71818359 -20.49829102 115.58496094 C-20.40403669 111.4997211 -20.3038601 107.41464414 -20.2019043 103.32958984 C-20.15862361 101.56237603 -20.1169437 99.79512225 -20.0769043 98.02783203 C-20.01903524 95.48588015 -19.95538894 92.94412816 -19.890625 90.40234375 C-19.87391251 89.61365906 -19.85720001 88.82497437 -19.83998108 88.01239014 C-19.74532735 84.49837326 -19.51148351 81.30277243 -18.57421875 77.91796875 C-18.90421875 77.91796875 -19.23421875 77.91796875 -19.57421875 77.91796875 Z M4.42578125 78.91796875 C5.08578125 84.19796875 5.74578125 89.47796875 6.42578125 94.91796875 C-1.49421875 94.91796875 -9.41421875 94.91796875 -17.57421875 94.91796875 C-17.57421875 95.24796875 -17.57421875 95.57796875 -17.57421875 95.91796875 C-9.65421875 95.91796875 -1.73421875 95.91796875 6.42578125 95.91796875 C6.42578125 103.50796875 6.42578125 111.09796875 6.42578125 118.91796875 C7.08578125 118.91796875 7.74578125 118.91796875 8.42578125 118.91796875 C8.47551636 114.48886603 8.51165829 110.05991478 8.53564453 105.63061523 C8.54565249 104.12635462 8.55926305 102.62211322 8.57666016 101.11791992 C8.60113934 98.94575232 8.61231648 96.77384371 8.62109375 94.6015625 C8.63156738 93.29759521 8.64204102 91.99362793 8.65283203 90.65014648 C8.40980955 86.65543176 7.77945702 83.66745462 6.42578125 79.91796875 C5.76578125 79.58796875 5.10578125 79.25796875 4.42578125 78.91796875 Z " fill="#607E81" transform="translate(89.57421875,24.08203125)"/>
<path d="M0 0 C3.65007647 2.08071992 6.46331936 4.03009309 8.5 7.8125 C8.29041075 10.63983071 7.76180054 11.58578127 5.6015625 13.45654297 C4.78429687 13.98393066 3.96703125 14.51131836 3.125 15.0546875 C2.22136719 15.64636719 1.31773437 16.23804687 0.38671875 16.84765625 C-0.56589844 17.45480469 -1.51851563 18.06195313 -2.5 18.6875 C-3.42167969 19.28691406 -4.34335937 19.88632813 -5.29296875 20.50390625 C-7.12741749 21.69668604 -8.96463093 22.88522546 -10.8046875 24.06933594 C-14.73106845 26.60868014 -18.61774558 29.20635698 -22.5 31.8125 C-23.49 31.1525 -24.48 30.4925 -25.5 29.8125 C-25.3984375 28.11328125 -25.3984375 28.11328125 -24.5 25.8125 C-22.40401766 24.05010358 -20.38282954 22.52393153 -18.125 21 C-17.50028809 20.5663916 -16.87557617 20.1327832 -16.23193359 19.68603516 C-10.75234372 15.90984361 -5.1650825 12.30404064 0.5 8.8125 C-3.14300554 5.00247988 -6.01130903 3.95892862 -11.3125 3.4375 C-15.99154605 3.57902124 -19.72168566 5.07301266 -23.5 7.8125 C-27.73409871 13.13226504 -28.92737926 17.51335652 -28.83984375 24.17578125 C-28.1866649 29.24354819 -25.71410852 32.82317407 -21.9609375 36.1953125 C-17.18976577 39.42885542 -12.09502182 39.606513 -6.5 38.8125 C-3.13121229 37.50530737 -3.13121229 37.50530737 -0.5 35.8125 C0.49 35.4825 1.48 35.1525 2.5 34.8125 C4.18670741 32.07008364 5.13726034 29.11551349 6.125 26.0625 C6.38539063 25.26328125 6.64578125 24.4640625 6.9140625 23.640625 C7.10742188 23.03734375 7.30078125 22.4340625 7.5 21.8125 C9.15 21.8125 10.8 21.8125 12.5 21.8125 C11.9534363 29.60103268 9.89426885 34.90110937 4 40.125 C-1.77715225 44.91741039 -6.42698733 45.31919358 -13.8828125 45.1796875 C-20.29283633 44.52899394 -25.14088958 42.52378846 -29.41015625 37.6171875 C-34.34886427 30.5418753 -35.30156759 24.37417118 -34.5 15.8125 C-32.72482338 8.65525923 -28.55634191 3.88389559 -22.5 -0.1875 C-15.2610176 -3.70088234 -7.22239353 -3.40254984 0 0 Z " fill="#627B7F" transform="translate(320.5,90.1875)"/>
<path d="M0 0 C7.29709715 4.07304834 10.86817014 8.81775204 13.15234375 16.85546875 C13.37939453 20.10693359 13.37939453 20.10693359 13.34765625 23.56640625 C13.34121094 24.81035156 13.33476562 26.05429688 13.328125 27.3359375 C13.31136719 28.62113281 13.29460937 29.90632813 13.27734375 31.23046875 C13.26832031 32.53886719 13.25929687 33.84726563 13.25 35.1953125 C13.2264946 38.41555245 13.19363462 41.63541582 13.15234375 44.85546875 C11.50234375 44.85546875 9.85234375 44.85546875 8.15234375 44.85546875 C8.14823486 44.04916016 8.14412598 43.24285156 8.13989258 42.41210938 C8.10680931 38.72583939 8.0361449 35.04118961 7.96484375 31.35546875 C7.95904297 30.08703125 7.95324219 28.81859375 7.94726562 27.51171875 C7.77487621 20.15643689 7.35374321 14.39100327 2.15234375 8.85546875 C-1.06457432 6.16802692 -4.10369296 4.96368159 -8.28515625 4.35546875 C-14.33777339 5.20495888 -18.45152969 7.10136103 -22.28515625 11.91796875 C-24.97674642 16.97815827 -25.5043075 21.21921221 -24.84765625 26.85546875 C-23.1334335 32.1658327 -20.60337598 35.80693046 -15.84765625 38.85546875 C-11.24309887 40.39032121 -6.35059958 40.89246975 -1.7734375 38.99609375 C-0.08797447 38.02085728 1.53720369 36.94321614 3.15234375 35.85546875 C3.81234375 35.52546875 4.47234375 35.19546875 5.15234375 34.85546875 C5.46484375 37.60546875 5.46484375 37.60546875 5.15234375 40.85546875 C0.92730082 45.08051168 -2.70145304 46.02604767 -8.53515625 46.16796875 C-16.00307451 46.08679573 -20.35212251 44.29554619 -25.66015625 39.10546875 C-30.25050738 32.2855185 -31.78903689 26.07346732 -30.84765625 17.85546875 C-29.20960404 10.37740431 -26.36550067 5.26662606 -19.84765625 1.04296875 C-13.41030118 -2.27612729 -6.75332321 -2.71429863 0 0 Z " fill="#657E80" transform="translate(192.84765625,89.14453125)"/>
<path d="M0 0 C1.32 0 2.64 0 4 0 C4 8.25 4 16.5 4 25 C5.98 23.68 7.96 22.36 10 21 C15.36379133 19.21206956 20.88772338 19.30944803 26.25 21.0625 C30.96285236 24.38291871 34.93343211 28.19064747 36 34 C36.08242194 36.46237767 36.10743299 38.92688768 36.09765625 41.390625 C36.0962413 42.09523865 36.09482635 42.79985229 36.09336853 43.52581787 C36.08778933 45.76725584 36.07524073 48.00859243 36.0625 50.25 C36.05748231 51.77343605 36.05291987 53.29687368 36.04882812 54.8203125 C36.03782674 58.54690772 36.02057646 62.27344396 36 66 C34.35 66 32.7 66 31 66 C30.98541748 65.05680908 30.97083496 64.11361816 30.95581055 63.1418457 C30.89460394 59.62841339 30.82042492 56.11574554 30.73754883 52.6027832 C30.70438084 51.08498379 30.67632368 49.56706344 30.65356445 48.04907227 C30.61986722 45.86161981 30.56754796 43.67526736 30.51171875 41.48828125 C30.48553467 40.17384033 30.45935059 38.85939941 30.43237305 37.50512695 C29.97837907 33.82472522 29.23450263 31.92311666 27 29 C22.62423085 26.11597033 19.19900136 25.35012483 14 26 C9.70655443 28.06415653 7.40640069 30.15390588 5.61572266 34.59008789 C4.17620627 40.2242934 4.40971954 46.15258788 4.3125 51.9375 C4.27927987 53.30276625 4.24478596 54.66800213 4.20898438 56.03320312 C4.12681024 59.35538586 4.05755632 62.6773147 4 66 C2.68 66 1.36 66 0 66 C0 44.22 0 22.44 0 0 Z " fill="#5F7D7F" transform="translate(422,68)"/>
<path d="M0 0 C1.11503906 0.00966797 2.23007812 0.01933594 3.37890625 0.02929688 C5.11720703 0.06700195 5.11720703 0.06700195 6.890625 0.10546875 C8.65212891 0.12577148 8.65212891 0.12577148 10.44921875 0.14648438 C13.34681798 0.18182095 16.24348927 0.23115896 19.140625 0.29296875 C19.140625 1.94296875 19.140625 3.59296875 19.140625 5.29296875 C18.49512695 5.30231445 17.84962891 5.31166016 17.18457031 5.32128906 C14.25248556 5.37505976 11.32198492 5.45869215 8.390625 5.54296875 C6.86695313 5.56423828 6.86695313 5.56423828 5.3125 5.5859375 C-0.541521 5.6628841 -0.541521 5.6628841 -5.5625 8.33984375 C-5.99046875 8.984375 -6.4184375 9.62890625 -6.859375 10.29296875 C-6.36389957 12.74927876 -6.36389957 12.74927876 -4.859375 15.29296875 C0.5977546 18.39361057 6.78507094 19.60354535 12.8359375 21.1328125 C17.08514457 22.62455541 19.94081943 24.49504052 22.45703125 28.265625 C23.71781177 32.0047398 23.19679332 35.54290276 22.140625 39.29296875 C19.94238685 41.99849263 18.24505833 43.74075208 15.140625 45.29296875 C13.10829866 45.37824503 11.07315494 45.4001301 9.0390625 45.390625 C7.22148437 45.38579102 7.22148437 45.38579102 5.3671875 45.38085938 C4.09617187 45.37248047 2.82515625 45.36410156 1.515625 45.35546875 C0.236875 45.35095703 -1.041875 45.34644531 -2.359375 45.34179688 C-5.52608792 45.32998078 -8.69270856 45.3135069 -11.859375 45.29296875 C-11.859375 43.64296875 -11.859375 41.99296875 -11.859375 40.29296875 C-10.75480957 40.2789502 -10.75480957 40.2789502 -9.62792969 40.26464844 C-6.28773282 40.2109272 -2.94893381 40.12728253 0.390625 40.04296875 C2.12892578 40.02169922 2.12892578 40.02169922 3.90234375 40 C5.57490234 39.95166016 5.57490234 39.95166016 7.28125 39.90234375 C8.30766602 39.88139648 9.33408203 39.86044922 10.39160156 39.83886719 C13.8066549 39.16070917 15.02467353 38.01025634 17.140625 35.29296875 C17.62424693 32.70396992 17.62424693 32.70396992 16.140625 30.29296875 C10.53234751 26.63042019 4.19421323 24.96220053 -2.22290039 23.21875 C-6.4415099 22.00748117 -9.16227356 20.80656244 -11.859375 17.29296875 C-13.43995059 11.70826832 -12.66518211 8.32407115 -9.859375 3.29296875 C-6.65953438 0.20715263 -4.37488401 -0.06696251 0 0 Z " fill="#688285" transform="translate(349.859375,88.70703125)"/>
<path d="M0 0 C1.60004883 0.01450195 1.60004883 0.01450195 3.23242188 0.02929688 C4.88661133 0.06700195 4.88661133 0.06700195 6.57421875 0.10546875 C7.69634766 0.11900391 8.81847656 0.13253906 9.97460938 0.14648438 C12.73747104 0.18175495 15.49934704 0.2310464 18.26171875 0.29296875 C18.26171875 1.94296875 18.26171875 3.59296875 18.26171875 5.29296875 C17.6162207 5.30231445 16.97072266 5.31166016 16.30566406 5.32128906 C13.37357931 5.37505976 10.44307867 5.45869215 7.51171875 5.54296875 C5.98804688 5.56423828 5.98804688 5.56423828 4.43359375 5.5859375 C-1.42042725 5.6628841 -1.42042725 5.6628841 -6.44140625 8.33984375 C-6.869375 8.984375 -7.29734375 9.62890625 -7.73828125 10.29296875 C-7.24280582 12.74927876 -7.24280582 12.74927876 -5.73828125 15.29296875 C-0.18827992 18.02571052 5.61451262 19.67884574 11.56445312 21.31054688 C15.7832665 22.55090209 18.60870024 23.72261299 21.26171875 27.29296875 C22.69980772 31.61509407 22.56666597 35.37812709 21.13671875 39.66796875 C19.02068476 42.63041633 17.51949646 43.70738544 14.26171875 45.29296875 C11.21557617 45.63354492 11.21557617 45.63354492 7.8671875 45.5859375 C6.66513672 45.57626953 5.46308594 45.56660156 4.22460938 45.55664062 C2.97873047 45.53150391 1.73285156 45.50636719 0.44921875 45.48046875 C-1.44860352 45.46016602 -1.44860352 45.46016602 -3.38476562 45.43945312 C-6.50303768 45.40415193 -9.62044167 45.35483694 -12.73828125 45.29296875 C-12.73828125 43.64296875 -12.73828125 41.99296875 -12.73828125 40.29296875 C-11.63371582 40.2789502 -11.63371582 40.2789502 -10.50683594 40.26464844 C-7.16663907 40.2109272 -3.82784006 40.12728253 -0.48828125 40.04296875 C1.25001953 40.02169922 1.25001953 40.02169922 3.0234375 40 C4.69599609 39.95166016 4.69599609 39.95166016 6.40234375 39.90234375 C7.42875977 39.88139648 8.45517578 39.86044922 9.51269531 39.83886719 C12.92774865 39.16070917 14.14576728 38.01025634 16.26171875 35.29296875 C16.74534068 32.70396992 16.74534068 32.70396992 15.26171875 30.29296875 C9.65344126 26.63042019 3.31530698 24.96220053 -3.10180664 23.21875 C-7.32041615 22.00748117 -10.04117981 20.80656244 -12.73828125 17.29296875 C-13.92966416 13.08341581 -13.87484746 10.74818946 -12.61328125 6.54296875 C-9.52270921 1.18597721 -6.03941507 -0.09688901 0 0 Z " fill="#657F82" transform="translate(391.73828125,88.70703125)"/>
<path d="M0 0 C1.15242188 0.01804687 2.30484375 0.03609375 3.4921875 0.0546875 C4.36101562 0.07789062 5.22984375 0.10109375 6.125 0.125 C6.125 1.775 6.125 3.425 6.125 5.125 C4.83916016 5.27195312 4.83916016 5.27195312 3.52734375 5.421875 C-7.888853 6.89082597 -7.888853 6.89082597 -16.3125 14.25 C-18.54779236 18.73021961 -18.53048986 23.23714967 -17.875 28.125 C-16.50562035 32.15706231 -14.47479534 35.39990679 -11.1015625 38.08984375 C-5.86733433 40.52330071 0.42459241 40.63908739 6.125 41.125 C6.125 42.775 6.125 44.425 6.125 46.125 C-9.55591634 47.04380369 -9.55591634 47.04380369 -15.296875 42.61328125 C-21.39892929 36.85862114 -23.90144631 31.83405219 -24.3125 23.375 C-24.18153622 16.34661055 -22.07282028 10.76862901 -17.41796875 5.46484375 C-12.24509427 0.7833241 -6.76733658 -0.13810891 0 0 Z " fill="#637E80" transform="translate(237.875,87.875)"/>
<path d="M0 0 C1.15242188 0.01804687 2.30484375 0.03609375 3.4921875 0.0546875 C4.36101562 0.07789062 5.22984375 0.10109375 6.125 0.125 C6.125 1.775 6.125 3.425 6.125 5.125 C5.19558594 5.21136719 4.26617187 5.29773438 3.30859375 5.38671875 C-6.78351619 6.51672998 -6.78351619 6.51672998 -14.875 12.125 C-18.46690675 17.10732227 -18.57151717 22.19493025 -17.875 28.125 C-16.50562035 32.15706231 -14.47479534 35.39990679 -11.1015625 38.08984375 C-5.86733433 40.52330071 0.42459241 40.63908739 6.125 41.125 C6.125 42.775 6.125 44.425 6.125 46.125 C-9.81472246 46.93094102 -9.81472246 46.93094102 -15.875 42.125 C-21.82273292 36.61734597 -23.90983785 31.45921692 -24.3125 23.375 C-24.18153622 16.34661055 -22.07282028 10.76862901 -17.41796875 5.46484375 C-12.24509427 0.7833241 -6.76733658 -0.13810891 0 0 Z " fill="#637C7F" transform="translate(273.875,87.875)"/>
<path d="M0 0 C1.65 0 3.3 0 5 0 C5 1.65 5 3.3 5 5 C5.763125 4.360625 6.52625 3.72125 7.3125 3.0625 C10.87552938 0.32808211 13.32439271 -0.12573344 17.6875 -0.0625 C18.89986328 -0.04896484 18.89986328 -0.04896484 20.13671875 -0.03515625 C21.05904297 -0.01775391 21.05904297 -0.01775391 22 0 C22 1.65 22 3.3 22 5 C21.40832031 5.08636719 20.81664062 5.17273438 20.20703125 5.26171875 C14.66159044 6.24777593 11.61091642 7.4042882 8 12 C5.7644768 15.53289855 5.6947709 18.59870573 5.5859375 22.734375 C5.54726563 24.02988281 5.50859375 25.32539062 5.46875 26.66015625 C5.43729733 28.02343284 5.40604993 29.38671418 5.375 30.75 C5.33679531 32.12893028 5.29774213 33.50783734 5.2578125 34.88671875 C5.16351996 38.25767718 5.0779178 41.62862978 5 45 C3.35 45 1.7 45 0 45 C0 30.15 0 15.3 0 0 Z " fill="#5F797C" transform="translate(468,89)"/>
<path d="M0 0 C4 0 4 0 5.75 1.5 C6.1625 1.995 6.575 2.49 7 3 C7.33 2.34 7.66 1.68 8 1 C12.90742419 7.45713709 15.27161527 12.39393539 15.1953125 20.7109375 C15.18886719 21.95488281 15.18242187 23.19882813 15.17578125 24.48046875 C15.15902344 25.76566406 15.14226562 27.05085938 15.125 28.375 C15.11597656 29.68339844 15.10695312 30.99179688 15.09765625 32.33984375 C15.07415085 35.5600837 15.04129087 38.77994707 15 42 C13.35 42 11.7 42 10 42 C9.99589111 41.19369141 9.99178223 40.38738281 9.98754883 39.55664062 C9.95446556 35.87037064 9.88380115 32.18572086 9.8125 28.5 C9.80669922 27.2315625 9.80089844 25.963125 9.79492188 24.65625 C9.62050007 17.21425312 9.11401482 11.66567239 4 6 C1.3743391 3.56098872 1.3743391 3.56098872 -1 2 C-0.67 1.34 -0.34 0.68 0 0 Z " fill="#5F787C" transform="translate(191,92)"/>
<path d="M0 0 C1.65 0 3.3 0 5 0 C4.4534363 7.78853268 2.39426885 13.08860937 -3.5 18.3125 C-6.85467242 21.09535325 -9.55246811 23 -14 23 C-13.52695318 18.74257863 -11.1136178 16.74294902 -8 14 C-7.01 13.67 -6.02 13.34 -5 13 C-3.31329259 10.25758364 -2.36273966 7.30301349 -1.375 4.25 C-1.11460937 3.45078125 -0.85421875 2.6515625 -0.5859375 1.828125 C-0.39257812 1.22484375 -0.19921875 0.6215625 0 0 Z " fill="#60797F" transform="translate(328,112)"/>
<path d="M0 0 C3.19798218 1.72318457 4.30669064 2.58503597 6.375 5.6875 C5.055 5.3575 3.735 5.0275 2.375 4.6875 C2.045 6.0075 1.715 7.3275 1.375 8.6875 C0.653125 8.06875 -0.06875 7.45 -0.8125 6.8125 C-5.72306362 3.45952435 -11.86388766 3.33712098 -17.625 2.6875 C-16.965 2.0275 -16.305 1.3675 -15.625 0.6875 C-18.265 1.3475 -20.905 2.0075 -23.625 2.6875 C-22.625 -0.3125 -22.625 -0.3125 -20.41796875 -1.47265625 C-13.41967218 -3.57703914 -6.57758124 -3.16945859 0 0 Z " fill="#6A8287" transform="translate(320.625,90.3125)"/>
<path d="M0 0 C0.93972656 0.63228516 0.93972656 0.63228516 1.8984375 1.27734375 C3.12433594 2.09912109 3.12433594 2.09912109 4.375 2.9375 C5.18710937 3.48277344 5.99921875 4.02804688 6.8359375 4.58984375 C10.13472102 6.73941207 11.95597437 7.13662916 15.875 7.125 C16.73867188 7.12757813 17.60234375 7.13015625 18.4921875 7.1328125 C20.80665971 7.01023921 22.78289116 6.64966445 25 6 C25.33 6.66 25.66 7.32 26 8 C24.68 8.33 23.36 8.66 22 9 C21.67 10.32 21.34 11.64 21 13 C14.6093191 13.42291271 9.13528635 13.51500036 3.453125 10.28125 C2 9 2 9 1.125 5.875 C1.063125 4.451875 1.063125 4.451875 1 3 C0.34 2.34 -0.32 1.68 -1 1 C-0.67 0.67 -0.34 0.34 0 0 Z " fill="#6A8385" transform="translate(293,122)"/>
<path d="M0 0 C0.66 0.33 1.32 0.66 2 1 C1.67 1.66 1.34 2.32 1 3 C0.01 2.67 -0.98 2.34 -2 2 C-2 2.66 -2 3.32 -2 4 C-1.01 4.33 -0.02 4.66 1 5 C-2 6 -2 6 -5.3125 5.8125 C-9.7416108 6.03770902 -11.59804418 7.23096619 -15 10 C-15.99 11.485 -15.99 11.485 -17 13 C-17.66 13 -18.32 13 -19 13 C-19.33 10.36 -19.66 7.72 -20 5 C-13.2969952 1.00672055 -7.86113643 -1.0582299 0 0 Z " fill="#657E86" transform="translate(445,88)"/>
<path d="M0 0 C-2.46306697 1.64204465 -4.21828633 2.54844776 -6.94140625 3.5078125 C-7.68970703 3.77207031 -8.43800781 4.03632812 -9.20898438 4.30859375 C-9.98564453 4.57800781 -10.76230469 4.84742187 -11.5625 5.125 C-12.34302734 5.40214844 -13.12355469 5.67929688 -13.92773438 5.96484375 C-19.73745382 8 -19.73745382 8 -22 8 C-22.33 8.66 -22.66 9.32 -23 10 C-25.00390625 10.78125 -25.00390625 10.78125 -27.5625 11.5 C-28.90828125 11.88478516 -28.90828125 11.88478516 -30.28125 12.27734375 C-32.70022147 12.92031749 -35.12359516 13.50137516 -37.5625 14.0625 C-39.2640625 14.5265625 -39.2640625 14.5265625 -41 15 C-41.33 15.66 -41.66 16.32 -42 17 C-44.109375 17.81640625 -44.109375 17.81640625 -46.75 18.5625 C-47.61109375 18.81128906 -48.4721875 19.06007813 -49.359375 19.31640625 C-51.89440646 19.97266439 -54.42739732 20.51416676 -57 21 C-57 20.34 -57 19.68 -57 19 C-50.01515809 16.36413828 -43.026646 13.73827322 -36.03325939 11.12515926 C-32.78616997 9.91150955 -29.54045173 8.69443456 -26.29760742 7.46948242 C-22.5707031 6.06185328 -18.83829144 4.66920666 -15.10546875 3.27734375 C-13.35691841 2.61338844 -13.35691841 2.61338844 -11.57304382 1.9360199 C-10.49214981 1.53552933 -9.4112558 1.13503876 -8.29760742 0.72241211 C-7.34496506 0.36489365 -6.39232269 0.00737518 -5.41081238 -0.36097717 C-3 -1 -3 -1 0 0 Z " fill="#768B8E" transform="translate(120,61)"/>
<path d="M0 0 C1.21236328 0.01353516 1.21236328 0.01353516 2.44921875 0.02734375 C3.37154297 0.04474609 3.37154297 0.04474609 4.3125 0.0625 C4.3125 1.7125 4.3125 3.3625 4.3125 5.0625 C3.70921875 5.18367188 3.1059375 5.30484375 2.484375 5.4296875 C1.68515625 5.59726563 0.8859375 5.76484375 0.0625 5.9375 C-1.12085938 6.18113281 -1.12085938 6.18113281 -2.328125 6.4296875 C-4.65581144 7.05400075 -6.57781952 7.91088542 -8.6875 9.0625 C-9.3475 8.4025 -10.0075 7.7425 -10.6875 7.0625 C-11.6775 8.3825 -12.6675 9.7025 -13.6875 11.0625 C-13.27315093 6.22842748 -11.30956046 4.16712326 -7.6875 1.0625 C-4.80538698 0.10179566 -2.98899956 -0.04331883 0 0 Z " fill="#688187" transform="translate(485.6875,88.9375)"/>
<path d="M0 0 C1.72863281 0.02707031 1.72863281 0.02707031 3.4921875 0.0546875 C4.36101562 0.07789062 5.22984375 0.10109375 6.125 0.125 C6.125 1.775 6.125 3.425 6.125 5.125 C3.52123726 5.40065727 0.92044032 5.64627265 -1.6875 5.875 C-2.42548828 5.95621094 -3.16347656 6.03742188 -3.92382812 6.12109375 C-6.08203125 6.296875 -6.08203125 6.296875 -9.875 6.125 C-11.88671875 4.140625 -11.88671875 4.140625 -12.875 2.125 C-8.41165816 0.40206865 -4.77298769 -0.09740791 0 0 Z " fill="#688387" transform="translate(273.875,87.875)"/>
<path d="M0 0 C1.70840281 1.63412443 2.93453047 2.86906094 4 5 C3.96798323 9.14617215 3.59595436 12.88935779 1.625 16.5625 C0 18 0 18 -3 18 C-4 15 -4 15 -3 12.75 C-1.70924816 9.20043245 -2.36486254 6.66968313 -3 3 C-2 2 -1 1 0 0 Z " fill="#607D7E" transform="translate(369,114)"/>
<path d="M0 0 C1.99779068 1.20151824 3.77216465 2.32137488 5.4453125 3.9453125 C5.4453125 4.6053125 5.4453125 5.2653125 5.4453125 5.9453125 C4.4553125 5.6153125 3.4653125 5.2853125 2.4453125 4.9453125 C2.4453125 4.2853125 2.4453125 3.6253125 2.4453125 2.9453125 C1.4553125 3.6053125 0.4653125 4.2653125 -0.5546875 4.9453125 C-3.03515625 4.921875 -3.03515625 4.921875 -5.7421875 4.5703125 C-6.64324219 4.45945312 -7.54429687 4.34859375 -8.47265625 4.234375 C-9.50326172 4.09128906 -9.50326172 4.09128906 -10.5546875 3.9453125 C-10.5546875 3.2853125 -10.5546875 2.6253125 -10.5546875 1.9453125 C-13.19523245 1.9453125 -15.04011412 2.29639034 -17.5546875 2.9453125 C-18.2146875 2.9453125 -18.8746875 2.9453125 -19.5546875 2.9453125 C-19.5546875 3.6053125 -19.5546875 4.2653125 -19.5546875 4.9453125 C-20.2146875 4.9453125 -20.8746875 4.9453125 -21.5546875 4.9453125 C-20.5546875 1.9453125 -20.5546875 1.9453125 -18.2421875 0.2578125 C-12.29713055 -1.85822472 -5.94486272 -2.45430112 0 0 Z " fill="#6D8D90" transform="translate(192.5546875,89.0546875)"/>
<path d="M0 0 C1.76923828 0.01353516 1.76923828 0.01353516 3.57421875 0.02734375 C4.47785156 0.03894531 5.38148438 0.05054687 6.3125 0.0625 C6.3125 1.7125 6.3125 3.3625 6.3125 5.0625 C-0.1225 5.5575 -0.1225 5.5575 -6.6875 6.0625 C-6.6875 5.4025 -6.6875 4.7425 -6.6875 4.0625 C-8.14583358 2.43735532 -8.14583358 2.43735532 -9.6875 1.0625 C-6.26517028 -0.07827657 -3.60076783 -0.03565117 0 0 Z " fill="#688283" transform="translate(237.6875,87.9375)"/>
<path d="M0 0 C0.54269531 0.433125 1.08539063 0.86625 1.64453125 1.3125 C2.35996094 1.869375 3.07539062 2.42625 3.8125 3 C4.52019531 3.556875 5.22789063 4.11375 5.95703125 4.6875 C8.01595999 6.27025683 8.01595999 6.27025683 11 6 C11 6.66 11 7.32 11 8 C17.55276707 10.28584898 24.10401439 10.60594368 31 11 C30.67 11.66 30.34 12.32 30 13 C19.76891675 13.71241585 11.30201197 12.11263421 3.3125 5.375 C1.36328125 3.5859375 1.36328125 3.5859375 0 2 C0 1.34 0 0.68 0 0 Z " fill="#738C8E" transform="translate(34,165)"/>
<path d="M0 0 C0.66666667 2 1.33333333 4 2 6 C-0.375 6.625 -0.375 6.625 -3 7 C-3.66 6.34 -4.32 5.68 -5 5 C-3.68 5 -2.36 5 -1 5 C-1.33 4.67 -1.66 4.34 -2 4 C-3.6290942 4.12022835 -5.25401908 4.29795139 -6.875 4.5 C-12.71010654 5.10415913 -18.19500337 4.72983517 -24 4 C-24 3.34 -24 2.68 -24 2 C-23.01604248 1.96241577 -23.01604248 1.96241577 -22.01220703 1.92407227 C-19.04959817 1.8082674 -16.08731969 1.68547114 -13.125 1.5625 C-12.09246094 1.52318359 -11.05992187 1.48386719 -9.99609375 1.44335938 C-9.00996094 1.40146484 -8.02382813 1.35957031 -7.0078125 1.31640625 C-6.09660645 1.27974854 -5.18540039 1.24309082 -4.24658203 1.20532227 C-1.96516519 1.13422935 -1.96516519 1.13422935 0 0 Z " fill="#6F868A" transform="translate(365,127)"/>
<path d="M0 0 C2.32783257 1.16391628 3.34167872 2.44336866 5 4.4375 C6.61903915 6.37629938 8.21204833 8.21204833 10 10 C10 10.99 10 11.98 10 13 C3.67164179 12.40298507 3.67164179 12.40298507 1.125 10.875 C-0.59070945 8.01548424 -0.76102234 5.28594289 -1 2 C-0.67 1.34 -0.34 0.68 0 0 Z " fill="#617C7E" transform="translate(338,97)"/>
<path d="M0 0 C0.66 0 1.32 0 2 0 C2.19694005 4.24961786 2.38092074 8.49970027 2.5625 12.75 C2.61857422 13.9565625 2.67464844 15.163125 2.73242188 16.40625 C2.78076172 17.56640625 2.82910156 18.7265625 2.87890625 19.921875 C2.9260376 20.99018555 2.97316895 22.05849609 3.02172852 23.15917969 C3.00254744 25.66694407 2.74499559 27.62203427 2 30 C1.34 30 0.68 30 0 30 C0 20.1 0 10.2 0 0 Z " fill="#5C777B" transform="translate(453,104)"/>
<path d="M0 0 C-0.33 0.66 -0.66 1.32 -1 2 C-1.99 1.67 -2.98 1.34 -4 1 C-4 1.66 -4 2.32 -4 3 C-3.01 3.33 -2.02 3.66 -1 4 C-4.80329367 5.26776456 -6.31742641 4.3809651 -10 3 C-13.07242053 1.59903754 -13.07242053 1.59903754 -16.1875 3.4375 C-17.115625 3.953125 -18.04375 4.46875 -19 5 C-18.05796011 2.4308003 -17.34534325 1.21583953 -15 -0.25 C-10.36600776 -1.40849806 -4.3876341 -2.19381705 0 0 Z " fill="#738A8E" transform="translate(447,89)"/>
<path d="M0 0 C2.40201786 1.83311889 3.31865836 3.0275993 4.375 5.8125 C2.395 6.8025 2.395 6.8025 0.375 7.8125 C-5.40961538 4.36634615 -5.40961538 4.36634615 -6.5 1.5625 C-6.54125 0.985 -6.5825 0.4075 -6.625 -0.1875 C-3.79004983 -1.3424797 -2.84944379 -1.28903409 0 0 Z " fill="#678084" transform="translate(449.625,90.1875)"/>
<path d="M0 0 C1.06863281 0.01804687 2.13726562 0.03609375 3.23828125 0.0546875 C4.04652344 0.07789062 4.85476563 0.10109375 5.6875 0.125 C5.6875 0.785 5.6875 1.445 5.6875 2.125 C-1.59821429 5.55357143 -1.59821429 5.55357143 -6.3125 5.125 C-5.6525 4.465 -4.9925 3.805 -4.3125 3.125 C-6.9525 3.785 -9.5925 4.445 -12.3125 5.125 C-11.3125 2.125 -11.3125 2.125 -9.14453125 0.9453125 C-5.95740488 0.02214486 -3.31201116 -0.07279145 0 0 Z " fill="#758C8E" transform="translate(309.3125,87.875)"/>
<path d="M0 0 C-3.43626235 3.43626235 -8.31615319 2.86772191 -13 3 C-16.35831579 2.81317978 -19.67001914 2.46952008 -23 2 C-23 1.34 -23 0.68 -23 0 C-19.54210946 -0.19635974 -16.08367803 -0.38058252 -12.625 -0.5625 C-11.64015625 -0.61857422 -10.6553125 -0.67464844 -9.640625 -0.73242188 C-8.69960938 -0.78076172 -7.75859375 -0.82910156 -6.7890625 -0.87890625 C-5.48509521 -0.94960327 -5.48509521 -0.94960327 -4.15478516 -1.02172852 C-2 -1 -2 -1 0 0 Z " fill="#71868B" transform="translate(406,129)"/>
<path d="M0 0 C1.65 0 3.3 0 5 0 C5.33 0.66 5.66 1.32 6 2 C2.87694627 3.17192435 -0.24874739 4.33663876 -3.375 5.5 C-4.26445313 5.83386719 -5.15390625 6.16773438 -6.0703125 6.51171875 C-6.92109375 6.82753906 -7.771875 7.14335937 -8.6484375 7.46875 C-9.43395996 7.76201172 -10.21948242 8.05527344 -11.02880859 8.35742188 C-13 9 -13 9 -15 9 C-14.67 8.01 -14.34 7.02 -14 6 C-11.09375 4.90234375 -11.09375 4.90234375 -7.5 3.9375 C-5.31764637 3.34684125 -3.14571576 2.71235456 -1 2 C-0.67 1.34 -0.34 0.68 0 0 Z " fill="#6B8889" transform="translate(95,163)"/>
<path d="M0 0 C1.65 0 3.3 0 5 0 C4 2 4 2 2 3 C1.67 12.24 1.34 21.48 1 31 C0.67 31 0.34 31 0 31 C0 20.77 0 10.54 0 0 Z " fill="#6D8485" transform="translate(468,89)"/>
<path d="M0 0 C2.475 0.495 2.475 0.495 5 1 C5.33 3.97 5.66 6.94 6 10 C5.34 10 4.68 10 4 10 C3.34 8.68 2.68 7.36 2 6 C1.34 6 0.68 6 0 6 C0 4.02 0 2.04 0 0 Z " fill="#597879" transform="translate(408,115)"/>
<path d="M0 0 C0.66 0 1.32 0 2 0 C2.64323227 8.07613852 0.8917284 14.48666996 -2 22 C-2.66 21.34 -3.32 20.68 -4 20 C-3.34 18.68 -2.68 17.36 -2 16 C-2.66 15.67 -3.32 15.34 -4 15 C-3.2884375 14.38125 -3.2884375 14.38125 -2.5625 13.75 C0.90946176 9.86140283 0.08219893 4.93193577 0 0 Z " fill="#5E7577" transform="translate(150,118)"/>
<path d="M0 0 C6.68993219 0.53951066 12.63460728 1.88706171 19 4 C19 4.66 19 5.32 19 6 C16.76968311 5.54729698 14.54078437 5.08760374 12.3125 4.625 C11.07113281 4.36976562 9.82976562 4.11453125 8.55078125 3.8515625 C5.52596682 3.12613946 2.83940745 2.24868779 0 1 C0 0.67 0 0.34 0 0 Z " fill="#72888C" transform="translate(388,107)"/>
<path d="M0 0 C0.70125 0.144375 1.4025 0.28875 2.125 0.4375 C5.07556141 1.01478375 8.03270151 1.51695141 11 2 C11 1.34 11 0.68 11 0 C13.97 0.495 13.97 0.495 17 1 C17 1.33 17 1.66 17 2 C15.35 2 13.7 2 12 2 C11.67 2.66 11.34 3.32 11 4 C6.71 3.67 2.42 3.34 -2 3 C-1.34 2.01 -0.68 1.02 0 0 Z " fill="#698386" transform="translate(74,96)"/>
<path d="M0 0 C-1 3 -1 3 -3.375 4.25 C-6 5 -6 5 -9 4 C-9.99 3.34 -10.98 2.68 -12 2 C-9 0 -9 0 -6 0 C-3 -1 -3 -1 0 0 Z " fill="#638487" transform="translate(306,91)"/>
<path d="M0 0 C1.70840281 1.63412443 2.93453047 2.86906094 4 5 C4.039992 6.99960012 4.04346799 9.00047242 4 11 C2.4375 9.1875 2.4375 9.1875 1 7 C1.33 6.01 1.66 5.02 2 4 C0.68 3.34 -0.64 2.68 -2 2 C-1.34 1.34 -0.68 0.68 0 0 Z M-3 3 C-1.515 3.99 -1.515 3.99 0 5 C-0.33 6.32 -0.66 7.64 -1 9 C-1.66 7.02 -2.32 5.04 -3 3 Z " fill="#5C7175" transform="translate(369,114)"/>
<path d="M0 0 C2.31 0.33 4.62 0.66 7 1 C6.67 2.32 6.34 3.64 6 5 C4.1875 5.6875 4.1875 5.6875 2 6 C0.25 4.5625 0.25 4.5625 -1 3 C-0.67 2.01 -0.34 1.02 0 0 Z " fill="#5F7A8D" transform="translate(225,90)"/>
<path d="M0 0 C2.36775721 2.36775721 2.99896496 4.29711338 4.125 7.4375 C4.47820312 8.40558594 4.83140625 9.37367187 5.1953125 10.37109375 C6 13 6 13 6 16 C5.34 16 4.68 16 4 16 C1.19958943 10.99926683 -0.34821126 5.74548584 0 0 Z " fill="#627578" transform="translate(144,97)"/>
<path d="M0 0 C6.93 0.495 6.93 0.495 14 1 C13.01 2.485 13.01 2.485 12 4 C8.37 3.67 4.74 3.34 1 3 C0.67 2.01 0.34 1.02 0 0 Z " fill="#6C8489" transform="translate(265,128)"/>
<path d="M0 0 C1.98 0.99 3.96 1.98 6 3 C6 4.32 6 5.64 6 7 C4.68 7.33 3.36 7.66 2 8 C2 6.68 2 5.36 2 4 C0.68 3.67 -0.64 3.34 -2 3 C-1.34 2.01 -0.68 1.02 0 0 Z " fill="#617B88" transform="translate(363,110)"/>
<path d="M0 0 C-0.66 0.66 -1.32 1.32 -2 2 C-4.625 1.625 -4.625 1.625 -7 1 C-7.33 1.99 -7.66 2.98 -8 4 C-10.64 4 -13.28 4 -16 4 C-16 3.34 -16 2.68 -16 2 C-10.60539047 -0.27141454 -5.73842251 -0.20413361 0 0 Z " fill="#5E7B7E" transform="translate(189,90)"/>
<path d="M0 0 C4.66666667 2.33333333 9.33333333 4.66666667 14 7 C11.63265545 7.82273185 10.35737246 8.10990889 7.9296875 7.36328125 C7.25164062 7.01652344 6.57359375 6.66976562 5.875 6.3125 C5.19179688 5.97863281 4.50859375 5.64476562 3.8046875 5.30078125 C1.68532337 3.77318762 0.97699675 2.39213122 0 0 Z " fill="#698485" transform="translate(256,126)"/>
<path d="M0 0 C0.33 0.66 0.66 1.32 1 2 C1.66 2 2.32 2 3 2 C2.75 3.875 2.75 3.875 2 6 C0.0625 7.125 0.0625 7.125 -2 8 C-2.66 8.66 -3.32 9.32 -4 10 C-4.1875 7.6875 -4.1875 7.6875 -4 5 C-2.5625 3.3125 -2.5625 3.3125 -1 2 C-0.67 1.34 -0.34 0.68 0 0 Z " fill="#5B7276" transform="translate(254,100)"/>
<path d="M0 0 C0.66 0.33 1.32 0.66 2 1 C1.1875 3.4375 1.1875 3.4375 0 6 C-0.99 6.33 -1.98 6.66 -3 7 C-3.33 7.99 -3.66 8.98 -4 10 C-4.99 10 -5.98 10 -7 10 C-6.52727227 5.74545047 -4.03562624 3.80795427 -1 1 C-0.67 0.67 -0.34 0.34 0 0 Z " fill="#5C7577" transform="translate(321,125)"/>
<path d="M0 0 C2.9538162 3.33495377 4.47277684 5.57132544 5 10 C5.185625 11.258125 5.37125 12.51625 5.5625 13.8125 C5.706875 14.864375 5.85125 15.91625 6 17 C4.0990238 14.1485357 3.03734101 11.70289524 1.875 8.5 C1.52179687 7.5409375 1.16859375 6.581875 0.8046875 5.59375 C0 3 0 3 0 0 Z " fill="#5F7577" transform="translate(18,127)"/>
<path d="M0 0 C2.97 0.99 5.94 1.98 9 3 C8.67 3.99 8.34 4.98 8 6 C5.6875 5.8125 5.6875 5.8125 3 5 C1.1875 2.4375 1.1875 2.4375 0 0 Z " fill="#607B7E" transform="translate(388,108)"/>
<path d="M0 0 C1.74627478 2.61941217 2.38722388 4.03824877 3 7 C1.68 7 0.36 7 -1 7 C-1.33 7.66 -1.66 8.32 -2 9 C-2.66 8.67 -3.32 8.34 -4 8 C-2.68 5.36 -1.36 2.72 0 0 Z " fill="#5A6F72" transform="translate(218,97)"/>
<path d="M0 0 C0 1.65 0 3.3 0 5 C-0.66 4.67 -1.32 4.34 -2 4 C-2.928125 3.7834375 -2.928125 3.7834375 -3.875 3.5625 C-6.11117674 2.97057086 -7.96611161 2.08958307 -10 1 C-6.78548731 -0.60725635 -3.56387464 -0.05748185 0 0 Z " fill="#6F8489" transform="translate(244,129)"/>
<path d="M0 0 C0.54269531 0.433125 1.08539063 0.86625 1.64453125 1.3125 C2.35996094 1.869375 3.07539062 2.42625 3.8125 3 C4.52019531 3.556875 5.22789063 4.11375 5.95703125 4.6875 C8.01595999 6.27025683 8.01595999 6.27025683 11 6 C11 6.66 11 7.32 11 8 C8.875 8.375 8.875 8.375 6 8 C3.70260359 6.25677649 1.73666661 4.30361963 0 2 C0 1.34 0 0.68 0 0 Z " fill="#6E8386" transform="translate(34,165)"/>
<path d="M0 0 C-2.20029834 2.20029834 -3.5781256 2.68582609 -6.5 3.625 C-7.2940625 3.88539062 -8.088125 4.14578125 -8.90625 4.4140625 C-11 5 -11 5 -13 5 C-13 4.34 -13 3.68 -13 3 C-4.57142857 -0.42857143 -4.57142857 -0.42857143 0 0 Z " fill="#71878D" transform="translate(62,82)"/>
<path d="M0 0 C0.33 0.66 0.66 1.32 1 2 C2.65 1.67 4.3 1.34 6 1 C6.33 1.66 6.66 2.32 7 3 C0.71428571 5.42857143 0.71428571 5.42857143 -3 4 C-2.67 3.01 -2.34 2.02 -2 1 C-1.34 0.67 -0.68 0.34 0 0 Z " fill="#58808E" transform="translate(344,89)"/>
<path d="M0 0 C2.125 0.9375 2.125 0.9375 4 2 C1.25 5.875 1.25 5.875 -1 7 C-1.33 5.02 -1.66 3.04 -2 1 C-1.34 0.67 -0.68 0.34 0 0 Z " fill="#597677" transform="translate(99,108)"/>
<path d="M0 0 C4.455 0.99 4.455 0.99 9 2 C8.01 2.495 8.01 2.495 7 3 C7 3.66 7 4.32 7 5 C4.69 4.34 2.38 3.68 0 3 C0 2.01 0 1.02 0 0 Z " fill="#617F81" transform="translate(303,130)"/>
<path d="M0 0 C0.66 0.33 1.32 0.66 2 1 C1.01 3.31 0.02 5.62 -1 8 C-2.32 7.34 -3.64 6.68 -5 6 C-3.35 4.02 -1.7 2.04 0 0 Z " fill="#5C8191" transform="translate(194,126)"/>
<path d="M0 0 C0.33 0 0.66 0 1 0 C1.19658808 1.41543415 1.38187546 2.83244031 1.5625 4.25 C1.66691406 5.03890625 1.77132813 5.8278125 1.87890625 6.640625 C2.00027349 9.00532874 1.69633257 10.7511037 1 13 C0.34 13 -0.32 13 -1 13 C-0.67 8.71 -0.34 4.42 0 0 Z " fill="#576C72" transform="translate(454,121)"/>
<path d="M0 0 C0.99 0.33 1.98 0.66 3 1 C3 1.66 3 2.32 3 3 C3.66 3 4.32 3 5 3 C5 3.66 5 4.32 5 5 C4.01 5.33 3.02 5.66 2 6 C1.01 5.01 0.02 4.02 -1 3 C-0.67 2.01 -0.34 1.02 0 0 Z " fill="#5F757A" transform="translate(222,92)"/>
<path d="M0 0 C1.32 0.66 2.64 1.32 4 2 C3.01 2.495 3.01 2.495 2 3 C2 3.66 2 4.32 2 5 C0.68 5 -0.64 5 -2 5 C-1.34 3.35 -0.68 1.7 0 0 Z " fill="#5C7689" transform="translate(168,122)"/>
<path d="M0 0 C5.66153846 1.47692308 5.66153846 1.47692308 7.375 4.125 C7.684375 5.053125 7.684375 5.053125 8 6 C7.01 5.67 6.02 5.34 5 5 C5 4.34 5 3.68 5 3 C3.35 2.67 1.7 2.34 0 2 C0 1.34 0 0.68 0 0 Z " fill="#6C8387" transform="translate(190,89)"/>
<path d="M0 0 C4.05606165 0.46800711 7.46588679 0.87953208 11 3 C7.44706507 4.14947895 6.20023331 4.0868937 2.6875 2.5625 C1.800625 2.046875 0.91375 1.53125 0 1 C0 0.67 0 0.34 0 0 Z " fill="#668E8F" transform="translate(223,130)"/>
<path d="M0 0 C0.99 1.485 0.99 1.485 2 3 C1.34 3 0.68 3 0 3 C0 2.01 0 1.02 0 0 Z M-1 3 C-0.67 3.99 -0.34 4.98 0 6 C0.66 6.33 1.32 6.66 2 7 C0.02 7.99 0.02 7.99 -2 9 C-2.33 8.01 -2.66 7.02 -3 6 C-2.34 5.01 -1.68 4.02 -1 3 Z " fill="#4F6779" transform="translate(301,112)"/>
</svg>
